<?xml version="1.0" encoding="UTF-8"?><svg id="Layer_1" xmlns="http://www.w3.org/2000/svg" viewBox="0 0 69.93 68.203"><defs><style>.cls-1{fill:#fff;fill-rule:evenodd;}</style></defs><path class="cls-1" d="M34.963,0C15.656,0,0,15.654,0,34.967c0,15.447,10.018,28.552,23.913,33.176,1.748,.321,2.386-.759,2.386-1.685,0-.83-.03-3.029-.047-5.947-9.726,2.113-11.778-4.687-11.778-4.687-1.59-4.039-3.882-5.115-3.882-5.115-3.175-2.169,.24-2.125,.24-2.125,3.509,.247,5.356,3.603,5.356,3.603,3.119,5.343,8.183,3.8,10.176,2.905,.318-2.26,1.221-3.8,2.22-4.674-7.764-.882-15.927-3.882-15.927-17.281,0-3.817,1.362-6.938,3.599-9.382-.36-.885-1.559-4.44,.343-9.253,0,0,2.936-.94,9.615,3.584,2.789-.776,5.78-1.163,8.754-1.177,2.969,.014,5.961,.401,8.754,1.177,6.675-4.525,9.606-3.584,9.606-3.584,1.908,4.814,.707,8.369,.348,9.253,2.241,2.444,3.594,5.565,3.594,9.382,0,13.432-8.175,16.388-15.964,17.254,1.255,1.079,2.374,3.213,2.374,6.475,0,4.674-.043,8.446-.043,9.592,0,.935,.63,2.023,2.404,1.681,13.882-4.633,23.891-17.729,23.891-33.172C69.93,15.654,54.274,0,34.963,0Z"/></svg>